/* XPM */
static const char * DVToolReader_xpm[] = {
/* width height num_colors chars_per_pixel */
"32 32 2 1",
/* colors */
"  c None",
"! c #cccccc",
/* pixels */
"                                ",
"                                ",
"                                ",
"                     !!         ",
"                     !!         ",
"                    !!          ",
"                   !!!          ",
"                  !!!!          ",
"                 !!!!!          ",
"                !!!!!!          ",
"               !!!!!!           ",
"              !!!!!!!           ",
"     !!!!!!!!!!!!!!!!!!!!!!!!!  ",
"     !!!!!!!!!!!!!!!!!!!!!!!!   ",
"      !!!!!!!!!!!!!!!!!!!!!     ",
"       !!!!!!!!!!!!!!!!!!       ",
"        !!!!!!!!!!!!!!!         ",
"        !!!!!!!!!!!!!           ",
"        !!!!!!!!!!!             ",
"       !!!!!!!!!!!!             ",
"      !!!!!!!!!!!!!             ",
"     !!!!!!!!!!!!!!             ",
"    !!!!!!!  !!!!!              ",
"   !!!!!!     !!!!              ",
"  !!!!!        !!!              ",
" !!!           !!!              ",
" !              !!              ",
"                                ",
"                                ",
"                                ",
"                                ",
"                                "
};
